<svg width="47" height="71" viewBox="0 0 47 71" fill="none" xmlns="http://www.w3.org/2000/svg">
<path d="M23.5381 70.6531L4.43949 65.0216L0.18338 14.3178H46.9502L42.6895 65.0139L23.5381 70.6531Z" fill="#4353AD"/>
<path d="M39.042 61.7857L42.6825 18.4637H23.5667V66.3425L39.042 61.7857" fill="#485FB5"/>
<path d="M23.5667 53.4194L23.541 53.4264L17.0207 51.5564L16.6039 46.5968H10.7266L11.5468 56.361L23.5398 59.8972L23.5667 59.8893V53.4194ZM8.88596 24.6823L9.41814 30.9008H23.5667V24.6823H8.88596ZM9.94038 37.2687L10.4651 43.4874H23.5667V37.2687H9.94038" fill="#EDEDED"/>
<path d="M28.2082 0.538347H35.2993V3.27712H31.1738V3.82513H35.2993V10.1243H28.2082V7.24828H32.334V6.70069H28.2084V0.538347H28.2082ZM19.6989 0.538347H26.7898V3.27712H22.6643V3.82513H26.7898V10.1243H19.6991V7.24828H23.8247V6.70069H19.6987V0.538347H19.6989ZM11.1897 0.538347H18.2806V3.68792H14.1551V6.83791H18.2809V9.98748H11.1897V0.538347Z" fill="#100F0D"/>
<path d="M37.1557 37.2689L38.2125 24.6825H23.5465V30.9009H31.7964L31.2637 37.2689H23.5465V43.4875H30.756L30.076 51.5529L23.5464 53.4246V59.8943L35.5487 56.3611L35.6366 55.3107L37.0128 38.9388L37.1557 37.2689Z" fill="white"/>
</svg>
