<svg width="165" height="41" viewBox="0 0 165 41" fill="none" xmlns="http://www.w3.org/2000/svg">
<path fill-rule="evenodd" clip-rule="evenodd" d="M157.562 3.63794L164.441 3.67804C164.441 3.67804 151.652 22.0644 150.608 23.5629C150.269 24.0481 149.754 24.5715 149.492 25.2201C148.832 26.851 148.154 30.4281 148.154 30.4281L141.86 30.4612C141.86 30.4612 142.839 26.7326 142.799 24.7466C142.763 23.0115 141.929 21.2787 141.46 19.5386C140.987 17.7774 140.345 14.3306 140.345 14.3306H146.815L147.708 18.1183L157.562 3.63794Z" fill="#1A1918"/>
<path fill-rule="evenodd" clip-rule="evenodd" d="M144.537 7.51558C145.807 8.32766 146.586 12.8064 146.586 12.8064C146.586 12.8064 139.944 12.9104 136.329 12.9104H133.205L129.412 30.4282H123.612C123.612 30.4282 127.221 11.3908 128.074 7.93933C128.35 6.82214 129.966 7.01363 132.694 7.01363H137.052C139.865 7.01363 143.154 6.63266 144.537 7.51558Z" fill="#1A1918"/>
<path fill-rule="evenodd" clip-rule="evenodd" d="M117.532 16.0473C117.532 16.0473 117.712 14.9227 116.918 13.6207C116.24 12.5106 115.613 12.2526 113.828 12.1934C108.788 12.0253 108.886 15.9881 108.886 15.9881L117.532 16.0473ZM122.998 11.5093C123.737 14.3359 122.329 20.9782 122.329 20.9782C122.329 20.9782 114.977 20.8479 110.95 20.9782C109.698 21.0186 108.199 20.8338 107.826 21.4517C107.302 22.318 108.018 23.651 108.625 24.2141C109.323 24.8628 110.684 24.9363 111.173 25.0025C114.441 25.4429 121.282 25.1161 121.282 25.1161L120.097 30.6837C120.097 30.6837 110.43 31.1977 105.595 29.9735C104.64 29.7322 103.746 29.2447 103.141 28.5532C102.976 28.3641 102.833 28.1061 102.677 27.8835C102.552 27.7057 102.188 27.1212 102.025 26.6594C100.921 23.5371 102.155 17.5551 103.364 14.3499C103.504 13.9783 103.681 13.5074 103.866 13.1071C104.098 12.6078 104.294 12.0444 104.479 11.7459C104.604 11.5401 104.759 11.4074 104.888 11.2132C105.037 10.9836 105.211 10.7611 105.372 10.5626C105.818 10.0132 106.325 9.62484 106.934 9.14227C108.948 7.54185 112.594 6.299 116.974 6.77489C118.623 6.95468 121.113 7.57961 122.329 9.37888C122.654 9.85944 122.815 10.8132 122.998 11.5093Z" fill="#1A1918"/>
<path fill-rule="evenodd" clip-rule="evenodd" d="M96.3915 6.99221L102.016 6.95679C102.016 6.95679 98.8817 22.7345 97.2842 30.4281H90.8137C86.2913 30.4281 82.264 31.0223 80.5506 27.5872C78.8885 24.252 80.4747 18.767 81.2199 15.0408C81.7465 12.4037 82.8556 7.0136 82.8556 7.0136L88.6832 6.95679C88.6832 6.95679 87.0365 15.3486 86.3515 19.5386C86.1061 21.0395 85.5999 22.4527 86.1284 23.5629C86.6305 24.6189 87.3332 24.6945 89.475 24.7466C90.1535 24.7633 92.3756 24.7466 92.3756 24.7466L96.3915 6.99221Z" fill="#1A1918"/>
<path fill-rule="evenodd" clip-rule="evenodd" d="M70.0642 18.3549C70.6532 16.1346 71.5122 13.7271 71.4029 11.7266C71.2847 9.58681 69.5936 7.6385 68.5026 7.22912C65.2162 5.99797 62.1395 7.71904 60.9168 9.12263C59.3347 10.9409 58.7992 13.0644 58.2392 15.9878C57.8222 18.1584 57.4807 20.4499 58.2392 22.1426C59.5822 25.1349 63.7701 24.4816 68.2793 24.51C68.9486 22.6068 69.502 20.469 70.0642 18.3549ZM77.8733 9.59617C78.5159 14.5532 76.0506 20.0242 74.3526 24.782C76.084 24.9478 77.6012 24.7563 77.7105 24.8933C77.8242 25.0711 76.5501 30.5725 76.106 30.5865C74.7318 30.6246 70.1782 30.6647 68.2793 30.6647C62.0834 30.6647 56.287 31.0931 53.331 27.8241C52.1306 26.496 51.3006 24.2186 51.0997 22.6161C50.7649 19.941 51.1844 16.9961 51.769 14.5675C52.2978 12.3753 52.976 10.3063 54.0003 8.41248C56.6038 3.59048 61.1332 0.0113316 68.7256 0.837444C70.1981 0.998522 72.3131 1.6826 73.6341 2.49435C73.7255 2.55149 74.0448 2.82118 74.1182 2.86864C75.9032 4.07372 77.5297 6.94974 77.8733 9.59617Z" fill="#1A1918"/>
<path fill-rule="evenodd" clip-rule="evenodd" d="M50.4594 7.02059C50.0845 8.83156 49.7097 10.8841 49.3147 12.6737H43.0676C43.5517 10.69 43.9221 8.71793 44.4062 6.99219C46.4053 6.99219 48.264 7.02059 50.4594 7.02059Z" fill="#1A1918"/>
<path fill-rule="evenodd" clip-rule="evenodd" d="M42.8445 14.3308H48.8684C48.081 18.9566 46.5215 26.418 45.2988 31.6117C44.5334 34.862 44.0225 37.234 41.9519 38.9501C41.7667 39.1041 41.6599 39.031 41.5059 39.187C41.1242 39.573 39.3594 40.0205 38.3823 40.1338C36.7936 40.3162 34.9976 40.1575 33.0454 40.1151C33.5563 38.1337 34.1343 35.7546 34.5894 33.979C39.3483 34.5899 39.469 29.8174 40.3903 25.2203C40.9235 22.5642 42.539 15.3962 42.8445 14.3308Z" fill="#1A1918"/>
<path fill-rule="evenodd" clip-rule="evenodd" d="M28.7883 26.4037L28.6591 26.7586C26.459 31.3036 22.5612 34.0924 17.0013 34.2153C14.4022 34.2721 11.9255 33.5647 10.3078 32.795C6.81636 31.1308 3.87987 28.0442 2.27603 24.7465C-0.0245387 20.019 -0.439358 13.4429 4.34414 8.53101C4.41784 8.53101 3.76396 9.59606 3.83766 9.59606L3.706 10.0506C0.258937 21.5008 10.8789 31.3132 21.2024 30.191C23.6835 29.9214 26.8474 28.4797 28.7883 26.4037Z" fill="#21609B"/>
<path fill-rule="evenodd" clip-rule="evenodd" d="M22.5411 21.6689C25.1384 21.6879 27.8512 20.4 29.4576 18.5917C28.0522 22.377 23.9827 24.8102 18.5252 24.0363C13.9559 23.3876 9.60296 18.5088 9.15443 13.6203C8.82655 10.0625 9.99541 7.93911 11.9212 5.36353C11.2518 6.71064 11.0018 7.74963 10.9394 8.41232C10.2077 16.1083 16.7336 21.6288 22.5411 21.6689Z" fill="#21609B"/>
<path fill-rule="evenodd" clip-rule="evenodd" d="M29.1968 12.1103C28.793 13.0928 26.4682 14.9485 25.4417 15.1805C21.3767 16.0992 18.7731 14.0539 17.4096 11.7266C17.2067 11.3788 16.8319 10.4297 16.7648 10.188C16.236 8.28016 16.4792 5.39445 18.0569 3.90063C17.5816 5.32093 17.5123 6.97082 17.7624 8.04323C17.9139 8.69188 18.3756 9.82378 18.8377 10.5359C19.6787 11.8332 20.2119 12.1484 21.2919 12.8371C21.7783 13.1473 22.3002 13.3959 22.5257 13.4644C23.5497 13.7839 25.7116 14.6267 29.1968 12.1103Z" fill="#21609B"/>
</svg>
