<svg width="74" height="70" viewBox="0 0 74 70" fill="none" xmlns="http://www.w3.org/2000/svg">
<path d="M0.682358 34.788C0.682358 40.6454 6.04725 46.1136 14.5055 49.1957C12.8164 58.2611 14.2028 65.5678 18.8332 68.4149C23.5929 71.3412 30.6835 69.3156 37.4136 63.0437C43.9738 69.0624 50.6041 71.431 55.2302 68.5758C59.9852 65.6411 61.4316 57.8388 59.6958 48.4905C68.5055 45.3852 73.4334 40.7225 73.4334 34.788C73.4334 29.0664 68.0585 24.1164 59.7144 21.0539C61.583 11.3192 59.9997 4.18981 55.1776 1.22512C50.5285 -1.63302 43.8213 0.858141 37.1646 7.03443C30.2394 0.478787 23.5983 -1.52273 18.7808 1.4506C14.1363 4.31687 12.811 11.7563 14.5055 20.9896C6.33286 24.0275 0.682358 29.0892 0.682358 34.788Z" fill="white"/>
<path d="M57.9472 24.0952C57.2769 23.8493 56.5824 23.6165 55.8673 23.3965C55.9849 22.8851 56.0927 22.3803 56.1886 21.8841C57.7631 13.7363 56.7337 7.17245 53.2186 5.01134C49.848 2.93913 44.3358 5.09974 38.7687 10.265C38.2333 10.7617 37.6965 11.2876 37.1599 11.8387C36.8023 11.4741 36.4454 11.1217 36.0893 10.7846C30.2548 5.26159 24.4066 2.9341 20.895 5.10146C17.5277 7.17969 16.5305 13.3504 17.9477 21.072C18.0845 21.8179 18.2445 22.5795 18.4254 23.3539C17.5977 23.6044 16.7987 23.8714 16.0341 24.1555C9.1938 26.6981 4.82526 30.6829 4.82526 34.8161C4.82526 39.085 9.51489 43.3668 16.6396 45.963C17.2019 46.1679 17.7853 46.3616 18.3865 46.5455C18.1914 47.3831 18.0216 48.2038 17.8791 49.0043C16.5278 56.592 17.5831 62.6169 20.9414 64.682C24.4103 66.8147 30.232 64.6225 35.9009 59.3396C36.349 58.9219 36.7986 58.4791 37.2491 58.0149C37.833 58.6143 38.4159 59.1816 38.9958 59.7138C44.4868 64.7514 49.91 66.7856 53.2652 64.7147C56.7307 62.5759 57.8569 56.1038 56.3947 48.2293C56.2831 47.6279 56.1531 47.0135 56.0072 46.3882C56.416 46.2594 56.8174 46.1263 57.2087 45.988C64.6156 43.3717 69.4347 39.142 69.4347 34.8161C69.4347 30.6679 64.9253 26.6563 57.9472 24.0952Z" fill="#53C1DE"/>
<path d="M56.3407 43.1948C55.9874 43.3195 55.6249 43.44 55.2555 43.5568C54.4378 40.797 53.3343 37.8624 51.9838 34.8304C53.2725 31.8706 54.3334 28.9735 55.1282 26.2316C55.7891 26.4355 56.4306 26.6505 57.0488 26.8775C63.0276 29.0718 66.6746 32.3162 66.6746 34.816C66.6746 37.4789 62.7359 40.9356 56.3407 43.1948ZM53.6871 48.8007C54.3336 52.2827 54.426 55.4308 53.9977 57.8918C53.6129 60.1032 52.8391 61.5776 51.8822 62.168C49.8461 63.4245 45.4918 61.7913 40.7958 57.483C40.2575 56.9892 39.7153 56.4618 39.1713 55.9037C40.9918 53.781 42.8113 51.3132 44.5871 48.5725C47.7105 48.277 50.6613 47.794 53.3374 47.1344C53.4692 47.7013 53.5862 48.2572 53.6871 48.8007ZM26.8521 61.9509C24.8627 62.6999 23.2783 62.7214 22.3206 62.1326C20.2826 60.8794 19.4354 56.042 20.591 49.553C20.7234 48.8099 20.881 48.0465 21.0626 47.2663C23.7093 47.8902 26.6385 48.3392 29.7694 48.6098C31.5571 51.2916 33.4292 53.7567 35.3157 55.9151C34.9035 56.3393 34.4929 56.7432 34.0847 57.1238C31.5779 59.4598 29.0659 61.1173 26.8521 61.9509ZM17.5323 43.1785C14.3819 42.0305 11.7801 40.5384 9.99676 38.9103C8.3943 37.4472 7.58524 35.9947 7.58524 34.816C7.58524 32.3078 11.0927 29.1086 16.9427 26.9341C17.6525 26.6703 18.3955 26.4216 19.1666 26.188C19.9751 28.9919 21.0356 31.9233 22.3155 34.8876C21.0191 37.896 19.9434 40.8742 19.127 43.7108C18.5773 43.5424 18.0447 43.3651 17.5323 43.1785ZM20.6564 20.5068C19.4421 13.8911 20.2486 8.9004 22.2778 7.64807C24.4393 6.31396 29.219 8.21612 34.2566 12.985C34.5786 13.2898 34.9019 13.6088 35.2261 13.9389C33.3489 16.0879 31.494 18.5344 29.7221 21.2004C26.6835 21.5007 23.7748 21.983 21.1005 22.6289C20.9324 21.9079 20.7834 21.1994 20.6564 20.5068ZM48.5259 27.8436C47.8866 26.6663 47.2303 25.5169 46.5612 24.3988C48.6227 24.6766 50.5977 25.0454 52.4525 25.4968C51.8957 27.3994 51.2016 29.3887 50.3846 31.4281C49.7986 30.2419 49.1787 29.0458 48.5259 27.8436ZM37.1608 16.0419C38.4339 17.5123 39.7088 19.1541 40.9628 20.9353C39.6992 20.8717 38.4199 20.8386 37.13 20.8386C35.8523 20.8386 34.5824 20.871 33.3266 20.9335C34.5818 19.1688 35.8678 17.5293 37.1608 16.0419ZM25.7229 27.864C25.0842 29.0446 24.4759 30.2341 23.899 31.4259C23.0952 29.3937 22.4076 27.3952 21.846 25.4656C23.6894 25.0258 25.6551 24.6662 27.7035 24.3937C27.0249 25.522 26.3632 26.6799 25.7229 27.8637V27.864ZM27.7624 45.4483C25.6461 45.1966 23.6508 44.8555 21.8079 44.4279C22.3785 42.4638 23.0813 40.4227 23.9021 38.3467C24.4805 39.5376 25.0913 40.7276 25.7338 41.9108H25.7339C26.3884 43.1162 27.0664 44.2969 27.7624 45.4483ZM37.2372 53.7976C35.929 52.2929 34.6242 50.6283 33.3498 48.8379C34.5869 48.8896 35.8481 48.9161 37.13 48.9161C38.4469 48.9161 39.7487 48.8844 41.0301 48.8236C39.772 50.6463 38.5016 52.3135 37.2372 53.7976ZM50.411 38.2409C51.2745 40.3393 52.0025 42.3697 52.5805 44.3003C50.7072 44.756 48.6847 45.1229 46.5536 45.3956C47.2243 44.2625 47.8864 43.0933 48.537 41.8906C49.1952 40.6738 49.8201 39.4552 50.411 38.2409ZM46.1462 40.4205C45.1362 42.2875 44.0993 44.0697 43.0467 45.752C41.1295 45.8982 39.1488 45.9735 37.13 45.9735C35.1194 45.9735 33.1636 45.9069 31.2803 45.7766C30.1852 44.0722 29.1258 42.2847 28.1223 40.4366H28.1225C27.1216 38.5935 26.2005 36.7349 25.3658 34.8867C26.2002 33.0342 27.119 31.1734 28.1141 29.3337L28.1139 29.3341C29.1117 27.4894 30.1618 25.7106 31.2467 24.0169C33.1682 23.862 35.1386 23.7812 37.1299 23.7812H37.13C39.1302 23.7812 41.1031 23.8626 43.024 24.0188C44.0924 25.7002 45.1354 27.4732 46.1371 29.3181C47.1502 31.1837 48.0808 33.0321 48.9224 34.8449C48.0833 36.6888 47.1548 38.5557 46.1462 40.4205ZM51.8399 7.56053C54.0035 8.89072 54.8448 14.2554 53.4855 21.29C53.3988 21.7389 53.3011 22.1961 53.1951 22.6595C50.5146 22.0001 47.6038 21.5094 44.5564 21.2046C42.781 18.5093 40.9413 16.0589 39.0947 13.9376C39.5912 13.4284 40.087 12.9428 40.5807 12.4846C45.3506 8.05906 49.8087 6.31176 51.8399 7.56053Z" fill="white"/>
<path d="M37.13 28.6653C40.3163 28.6653 42.8994 31.4191 42.8994 34.8162C42.8994 38.2132 40.3163 40.9671 37.13 40.9671C33.9437 40.9671 31.3606 38.2132 31.3606 34.8162C31.3606 31.4191 33.9437 28.6653 37.13 28.6653Z" fill="#53C1DE"/>
</svg>
