<svg width="48" height="71" viewBox="0 0 48 71" fill="none" xmlns="http://www.w3.org/2000/svg">
<path d="M4.70186 65.0216L0.466728 14.3175H47.0043L42.7645 65.0135L23.707 70.6531L4.70186 65.0216Z" fill="#E53D20"/>
<path d="M23.7355 66.3425L39.1349 61.7855L42.7581 18.4634H23.7355V66.3425Z" fill="#F15123"/>
<path d="M23.7355 37.2686H16.0262L15.4937 30.9006H23.7355V24.6819H23.7153H9.12654L9.26604 26.3502L10.698 43.4871H23.7355V37.2686Z" fill="#EDEDED"/>
<path d="M23.7355 53.419L23.71 53.4264L17.2216 51.5562L16.8066 46.5966H13.6538H10.9582L11.7745 56.3608L23.7087 59.897L23.7355 59.8891V53.419Z" fill="#EDEDED"/>
<path d="M4.79652 0.538347H7.75729V3.66063H10.4656V0.538347H13.4265V9.99341H10.4657V6.82736H7.75742V9.99341H4.79674V0.538347H4.79652Z" fill="#100F0D"/>
<path d="M17.3199 3.67381H14.7134V0.538347H22.8884V3.67381H20.2808V9.99341H17.3201V3.67381H17.3199Z" fill="#100F0D"/>
<path d="M24.1859 0.538347H27.2731L29.1721 3.86055L31.0693 0.538347H34.1577V9.99341H31.2091V5.30695L29.1721 8.66879H29.1213L27.0829 5.30695V9.99341H24.1859V0.538347Z" fill="#100F0D"/>
<path d="M35.6311 0.538347H38.5928V6.86815H42.7563V9.99341H35.6311V0.538347Z" fill="#100F0D"/>
<path d="M23.7153 37.2688V43.4872H30.8894L30.2132 51.5524L23.7153 53.4244V59.894L35.6589 56.3608L35.7465 55.3103L37.1157 38.9386L37.2578 37.2688H35.6878H23.7153Z" fill="white"/>
<path d="M23.7153 24.6822V30.9009H37.7692H37.7879L37.9048 29.5031L38.1702 26.3505L38.3095 24.6822H23.7153Z" fill="white"/>
</svg>
