<svg width="67" height="71" viewBox="0 0 67 71" fill="none" xmlns="http://www.w3.org/2000/svg">
<path d="M0.900085 0.53833H66.9834V70.653H0.900085V0.53833Z" fill="#F7DF1E"/>
<path d="M18.2758 59.1313L23.333 55.8841C24.3086 57.7194 25.1961 59.2723 27.3249 59.2723C29.3655 59.2723 30.6521 58.4254 30.6521 55.1311V32.7278H36.8622V55.2242C36.8622 62.0487 33.0919 65.1551 27.5911 65.1551C22.6232 65.1551 19.7395 62.4251 18.2757 59.1308" fill="black"/>
<path d="M40.2354 58.425L45.2919 55.3187C46.623 57.6252 48.3531 59.3194 51.4137 59.3194C53.9868 59.3194 55.6277 57.9544 55.6277 56.0717C55.6277 53.8126 53.9421 53.0124 51.1031 51.695L49.551 50.9885C45.0704 48.9651 42.0982 46.4236 42.0982 41.0581C42.0982 36.1162 45.6469 32.3508 51.192 32.3508C55.14 32.3508 57.979 33.81 60.0193 37.6223L55.1841 40.9167C54.1194 38.8931 52.9664 38.0931 51.1921 38.0931C49.3734 38.0931 48.22 39.3168 48.22 40.9167C48.22 42.8935 49.3734 43.6938 52.0346 44.9176L53.5871 45.6235C58.8659 48.024 61.8381 50.4711 61.8381 55.9776C61.8381 61.9082 57.4466 65.1554 51.5469 65.1554C45.7802 65.1554 42.054 62.2375 40.2355 58.425" fill="black"/>
</svg>
