<svg width="164" height="49" viewBox="0 0 164 49" fill="none" xmlns="http://www.w3.org/2000/svg">
<path fill-rule="evenodd" clip-rule="evenodd" d="M152.356 20.471C152.209 20.5017 152.063 20.8393 152.063 21.0233C152.033 22.2505 152.004 25.5029 152.004 27.7118C152.004 27.7732 152.092 27.8958 152.18 27.8958C152.62 27.9265 153.675 27.9572 154.584 27.9572C155.845 27.9572 156.578 27.7732 156.988 27.5892C158.044 27.0369 158.542 25.8402 158.542 24.5208C158.542 21.5449 156.548 20.4096 153.587 20.4096C153.382 20.3792 152.796 20.3792 152.356 20.471ZM159.92 34.1855C159.92 31.1482 157.78 29.4605 153.91 29.4605C153.734 29.4605 152.502 29.4298 152.209 29.4913C152.121 29.522 152.004 29.5834 152.004 29.6756C152.004 31.8538 151.975 35.3208 152.063 36.6706C152.121 37.2536 152.532 38.0821 153.03 38.3275C153.558 38.6344 154.76 38.6955 155.581 38.6955C157.897 38.6955 159.92 37.3458 159.92 34.1855ZM146.375 18.7837C146.668 18.7837 147.548 18.8756 149.805 18.8756C151.945 18.8756 153.646 18.8144 155.728 18.8144C158.278 18.8144 161.796 19.7654 161.796 23.7538C161.796 25.7176 160.477 27.2823 158.747 28.0494C158.659 28.0801 158.659 28.1412 158.747 28.1719C161.21 28.8164 163.38 30.4119 163.38 33.4185C163.38 36.364 161.621 38.2354 159.07 39.4014C157.516 40.107 155.581 40.3524 153.616 40.3524C152.121 40.3524 148.105 40.1684 145.876 40.2298C145.642 40.1377 146.082 39.0331 146.287 38.8491C146.815 38.8184 147.225 38.7877 147.782 38.6036C148.574 38.3889 148.662 38.1435 148.779 36.8856C148.838 35.8117 148.838 32.007 148.838 29.3073C148.838 25.5947 148.867 23.0789 148.838 21.8518C148.808 20.9007 148.486 20.5939 147.841 20.4096C147.342 20.3177 146.521 20.1949 145.847 20.103C145.7 19.9494 146.199 18.9063 146.375 18.7837ZM129.458 37.8673C130.162 38.4501 131.54 38.6955 132.771 38.6955C134.354 38.6955 135.937 38.3889 137.462 36.9467C139.016 35.4741 140.101 33.2038 140.101 29.5834C140.101 26.1163 138.84 23.2937 136.26 21.6371C134.794 20.6857 132.917 20.287 130.748 20.287C130.103 20.287 129.487 20.3177 129.106 20.5017C129.018 20.5632 128.813 20.8393 128.813 20.9926C128.754 21.6063 128.754 26.331 128.754 29.0925C128.754 31.9459 128.754 35.9343 128.813 36.3944C128.813 36.8549 129.018 37.5605 129.458 37.8673ZM122.803 18.7837C123.36 18.7837 125.5 18.8756 126.526 18.8756C128.373 18.8756 129.692 18.7837 133.181 18.7837C136.113 18.7837 138.576 19.6121 140.335 21.1766C142.475 23.1097 143.59 25.779 143.59 29.0311C143.59 33.6639 141.567 36.3333 139.543 37.8673C137.521 39.4321 134.882 40.3524 131.129 40.3524C129.136 40.3524 125.705 40.291 122.861 40.2603H122.832C122.685 39.9844 123.066 38.9105 123.301 38.8798C124.063 38.7877 124.268 38.7569 124.65 38.6036C125.265 38.3582 125.383 38.0206 125.471 36.8856C125.559 34.7685 125.529 32.222 125.529 29.338C125.529 27.2823 125.559 23.263 125.5 21.9743C125.412 20.9007 124.972 20.6246 124.093 20.4403C123.653 20.3484 123.066 20.2256 122.246 20.1337C122.128 19.9187 122.656 18.9677 122.803 18.7837Z" fill="#8E714E"/>
<path fill-rule="evenodd" clip-rule="evenodd" d="M87.3272 39.0638C86.5942 38.9717 86.0665 38.8491 85.4213 38.5422C85.3335 38.4808 85.1868 38.1742 85.1868 38.0514C85.1281 36.9775 85.1281 33.9094 85.1281 31.8538C85.1281 30.1969 84.8644 28.755 84.1899 27.7425C83.3983 26.5765 82.2549 25.9016 80.789 25.9016C79.4989 25.9016 77.7691 26.8222 76.3325 28.1108C76.3032 28.1412 76.0686 28.3563 76.098 28.0187C76.098 27.6811 76.1567 27.0062 76.1861 26.5461C76.2154 26.1163 75.9809 25.9016 75.9809 25.9016C75.0424 26.3925 72.4038 27.0369 71.4364 27.1288C70.7327 27.2824 70.5569 27.988 71.2899 28.2334H71.3192C72.1106 28.4788 72.6384 28.755 73.0488 29.0311C73.342 29.2766 73.3126 29.6141 73.3126 29.8903C73.342 32.1914 73.342 35.7196 73.2542 37.6526C73.2249 38.4197 73.0197 38.6955 72.4919 38.8184L72.5503 38.7877C72.14 38.8798 71.8174 38.9717 71.3189 39.0331C71.1431 39.2171 71.1431 40.1991 71.3189 40.4139C71.6415 40.4139 73.342 40.3217 74.7495 40.3217C76.6845 40.3217 77.6813 40.4139 78.1797 40.4139C78.3849 40.1684 78.4436 39.2478 78.3262 39.0331C77.7691 39.0024 77.3587 38.9413 76.9777 38.8184C76.4499 38.6955 76.3032 38.4197 76.2738 37.7752C76.2154 36.149 76.2154 32.7129 76.2154 30.3812C76.2154 29.7367 76.3912 29.4299 76.5671 29.2458C77.2413 28.6324 78.3262 28.2027 79.2937 28.2027C80.2319 28.2027 80.8477 28.5095 81.3168 28.9086C81.9617 29.4606 82.1669 30.2583 82.2549 30.8413C82.4014 32.1606 82.343 34.7686 82.343 37.0389C82.343 38.2661 82.2549 38.573 81.8152 38.7262C81.61 38.8184 81.0822 38.9413 80.4664 39.0024C80.2612 39.2171 80.3199 40.1684 80.4664 40.3831C81.3168 40.3831 82.3136 40.291 83.7795 40.291C85.5971 40.291 86.7701 40.3831 87.2392 40.3831C87.3856 40.1991 87.4443 39.3093 87.3269 39.0638H87.3272ZM95.4485 27.3438C93.8945 27.3438 92.927 28.6017 92.927 30.5652C92.927 32.5594 93.7771 34.8604 96.1814 34.8604C96.5918 34.8604 97.3541 34.6764 97.7058 34.247C98.2629 33.6947 98.6442 32.5901 98.6442 31.4243C98.6442 28.8778 97.4419 27.3438 95.4485 27.3438ZM95.243 40.9047C94.6568 40.9047 94.2462 41.0887 93.9825 41.2423C92.7509 42.0705 92.194 42.8682 92.194 43.8195C92.194 44.7091 92.5164 45.4147 93.2202 46.0284C94.0703 46.7955 95.243 47.1638 96.7383 47.1638C99.7288 47.1638 101.048 45.4761 101.048 43.8195C101.048 42.6535 100.491 41.8865 99.3478 41.457C98.5268 41.0887 97.0315 40.9047 95.243 40.9047ZM95.4485 48.8818C93.66 48.8818 92.3699 48.4828 91.2559 47.5932C90.171 46.734 89.7019 45.4454 89.7019 44.5558C89.7019 44.3104 89.7606 43.6352 90.2884 43.0218C90.6107 42.6535 91.3143 41.9479 92.9857 40.7514C93.0441 40.7207 93.0735 40.69 93.0735 40.6286C93.0735 40.5672 93.0148 40.5057 92.9564 40.4753C91.5782 39.923 91.1678 39.0331 91.0504 38.5422V38.4808C91.0214 38.2968 90.9627 38.1128 91.2265 37.9285C91.4317 37.7752 91.725 37.5912 92.0473 37.3765C92.5457 37.0696 93.0735 36.7321 93.3961 36.4559C93.4548 36.3945 93.4548 36.3333 93.4548 36.2719C93.4548 36.2105 93.3961 36.149 93.3374 36.1186C91.2852 35.4127 90.259 33.8173 90.259 31.4243C90.259 29.8596 90.9333 28.4481 92.1353 27.5585C92.9564 26.8834 95.0085 26.0552 96.3573 26.0552H96.4453C97.8232 26.0856 98.5855 26.3925 99.6701 26.7915C100.257 27.0062 100.814 27.0981 101.576 27.0981C102.719 27.0981 103.218 26.7301 103.628 26.3006C103.658 26.3618 103.716 26.5153 103.746 26.9141C103.775 27.3131 103.658 27.8958 103.364 28.3255C103.13 28.6628 102.602 28.9086 102.074 28.9086H101.928C101.4 28.8471 101.165 28.7857 101.165 28.7857L101.048 28.8471C101.019 28.9086 101.048 28.9697 101.078 29.0618L101.107 29.1233C101.165 29.3994 101.283 30.2276 101.283 30.4426C101.283 32.9584 100.315 34.0627 99.2891 34.8911C98.2923 35.6582 97.1489 36.149 95.8588 36.2719C95.8295 36.2719 95.7124 36.2719 95.4485 36.3026C95.3017 36.3026 95.0965 36.3333 95.0672 36.3333H95.0378C94.8033 36.3945 94.2171 36.7013 94.2171 37.2229C94.2171 37.6831 94.481 38.2354 95.7414 38.3275C96.0053 38.3582 96.2692 38.3582 96.5624 38.389C98.2336 38.5115 100.315 38.6651 101.283 39.0024C102.631 39.524 103.482 40.7819 103.482 42.2855C103.482 44.5558 101.928 46.6729 99.3478 47.9919C98.0871 48.5749 96.8263 48.8818 95.4485 48.8818ZM112.16 27.4971C111.544 27.4971 110.987 27.6504 110.577 27.9572C109.433 28.6935 108.847 30.1664 108.847 32.3139C108.847 36.3333 110.782 39.156 113.538 39.156C114.359 39.156 115.004 38.9105 115.561 38.4197C116.411 37.6831 116.851 36.2105 116.851 34.1548C116.851 30.1664 114.945 27.4971 112.16 27.4971ZM112.688 40.6286C107.704 40.6286 105.915 36.7935 105.915 33.2038C105.915 30.688 106.883 28.755 108.818 27.3742C110.196 26.4846 111.837 25.9938 113.303 25.9938C117.115 25.9938 119.783 28.8471 119.783 32.9584C119.783 35.7503 118.727 37.9592 116.704 39.3093C115.737 39.9841 114.066 40.6286 112.688 40.6286H112.688ZM60.442 27.4971C59.8261 27.4971 59.2693 27.6504 58.8586 27.9572C57.7153 28.6935 57.1288 30.1664 57.1288 32.3139C57.1288 36.3333 59.0638 39.156 61.8198 39.156C62.6408 39.156 63.2857 38.9105 63.8429 38.4197C64.693 37.6831 65.1329 36.2105 65.1329 34.1548C65.1329 30.1664 63.2564 27.4971 60.442 27.4971ZM60.9697 40.6286C55.9855 40.6286 54.197 36.7935 54.197 33.2038C54.197 30.688 55.1645 28.755 57.0995 27.3742C58.4776 26.4846 60.1194 25.9938 61.5853 25.9938C65.3968 25.9938 68.0648 28.8471 68.0648 32.9584C68.0648 35.7503 67.0092 37.9592 64.9862 39.3093C64.048 39.9841 62.3769 40.6286 60.9697 40.6286ZM27.4585 40.3217C27.3998 40.2299 27.3411 39.9537 27.3704 39.6161C27.3704 39.3707 27.4291 39.2171 27.4585 39.156C28.074 39.0638 28.3966 38.9717 28.7483 38.8798C29.3348 38.7262 29.5693 38.389 29.5987 37.6219C29.6867 35.781 29.6867 32.2832 29.6574 29.8596V29.7981C29.6574 29.522 29.6574 29.1844 29.3348 28.939C28.8657 28.6324 28.3086 28.3563 27.5756 28.1412C27.3117 28.0494 27.1359 27.8958 27.1652 27.7118C27.1652 27.5278 27.3411 27.3131 27.7224 27.2516C28.6899 27.1595 31.2111 26.5153 32.2079 26.0552C32.2666 26.1163 32.3547 26.3006 32.3547 26.5461L32.3253 26.8834C32.296 27.2209 32.2666 27.6199 32.2666 28.0187C32.2666 28.1412 32.384 28.2334 32.5011 28.2334C32.5598 28.2334 32.6186 28.2027 32.6773 28.172C34.5535 26.6379 36.254 26.0856 37.1334 26.0856C38.5703 26.0856 39.6843 26.7915 40.5346 28.2641C40.5931 28.3563 40.6518 28.3867 40.7398 28.3867C40.7985 28.3867 40.8863 28.3563 40.9156 28.2948C42.6455 26.9141 44.3753 26.0856 45.5186 26.0856C48.2452 26.0856 49.8579 28.2027 49.8579 31.7923C49.8579 32.8048 49.8579 34.1241 49.8286 35.3209C49.8286 36.3945 49.7992 37.3765 49.7992 38.0821C49.7992 38.2354 50.0044 38.7262 50.327 38.8184C50.7374 39.0331 51.2945 39.1253 52.0275 39.2478H52.0568C52.1155 39.4626 51.9981 40.2603 51.881 40.4139C51.7049 40.4139 51.441 40.4139 51.148 40.3831C50.5909 40.3524 49.7992 40.3217 48.9198 40.3217C47.1019 40.3217 46.1638 40.3524 45.2547 40.4139C45.1963 40.1684 45.1669 39.4321 45.2547 39.2478C45.7825 39.156 46.0464 39.0638 46.369 38.9717C46.9554 38.7877 47.1019 38.5115 47.1313 37.7138C47.1313 37.1311 47.2484 32.1606 47.0726 30.9639C46.8967 29.7367 46.017 28.2948 44.082 28.2948C43.3491 28.2948 42.2057 28.6017 41.0915 29.4913C41.0331 29.5527 40.9743 29.706 40.9743 29.7981V29.8289C41.0915 30.473 41.0915 31.2096 41.0915 32.3446V34.3388C41.0915 35.7196 41.0621 37.0082 41.0915 37.9899C41.0915 38.6651 41.4728 38.8184 41.7954 38.9413C41.9712 38.9717 42.0883 39.0024 42.2351 39.0331C42.499 39.0945 42.7629 39.156 43.1732 39.2478C43.2319 39.3707 43.2319 39.7694 43.1439 40.107C43.1145 40.291 43.0558 40.3832 43.0267 40.4139C42.0299 40.3832 41.0037 40.3524 39.5084 40.3524C39.0687 40.3524 38.3064 40.3831 37.6612 40.3831C37.1334 40.3831 36.635 40.4139 36.3421 40.4139C36.3127 40.3524 36.254 40.1377 36.254 39.8001C36.254 39.524 36.3127 39.3093 36.3714 39.2478C36.5179 39.2171 36.635 39.1867 36.7818 39.1867C37.1334 39.1253 37.4267 39.0638 37.7199 39.0024C38.2183 38.8491 38.3942 38.573 38.4235 37.8981C38.5116 36.364 38.5994 31.9766 38.3942 30.872C38.0425 29.0926 37.075 28.2027 35.521 28.2027C34.6122 28.2027 33.4686 28.6628 32.5305 29.3994C32.384 29.522 32.2666 29.8289 32.2666 30.105V31.9152C32.2666 34.1241 32.2666 36.8856 32.296 38.0821C32.3253 38.4501 32.4424 38.8798 33.117 39.0331C33.2635 39.0638 33.498 39.1253 33.7912 39.156L34.319 39.2478C34.3777 39.4321 34.3484 40.1684 34.231 40.4139C33.9377 40.4139 33.586 40.3831 33.1754 40.3831C32.5598 40.3524 31.7682 40.3217 30.8887 40.3217C29.8625 40.3217 29.1296 40.3524 28.5431 40.3831C28.1327 40.3217 27.8101 40.3217 27.4585 40.3217Z" fill="#442D22"/>
<path fill-rule="evenodd" clip-rule="evenodd" d="M12.0367 47.6855L10.8346 47.2558C10.8346 47.2558 10.9814 40.8435 8.78253 40.3833C7.31661 38.6038 9.01706 -35.0921 14.2943 40.1379C14.2943 40.1379 12.4767 41.0889 12.1541 42.7151C11.8021 44.3106 12.0367 47.6855 12.0367 47.6855Z" fill="white"/>
<path fill-rule="evenodd" clip-rule="evenodd" d="M12.0367 47.6855L10.8346 47.2558C10.8346 47.2558 10.9814 40.8435 8.78253 40.3833C7.31661 38.6038 9.01706 -35.0921 14.2943 40.1379C14.2943 40.1379 12.4767 41.0889 12.1541 42.7151C11.8021 44.3106 12.0367 47.6855 12.0367 47.6855Z" fill="#A6A385"/>
<path fill-rule="evenodd" clip-rule="evenodd" d="M12.6819 41.4879C12.6819 41.4879 23.2073 34.2471 20.7445 19.1825C18.3698 8.22953 12.7697 4.63986 12.1542 3.25911C11.4799 2.27737 10.8347 0.559326 10.8347 0.559326L11.2747 31.0254C11.2747 31.0561 10.3656 40.3525 12.6819 41.4879Z" fill="white"/>
<path fill-rule="evenodd" clip-rule="evenodd" d="M12.6819 41.4879C12.6819 41.4879 23.2073 34.2471 20.7445 19.1825C18.3698 8.22953 12.7697 4.63986 12.1542 3.25911C11.4799 2.27737 10.8347 0.559326 10.8347 0.559326L11.2747 31.0254C11.2747 31.0561 10.3656 40.3525 12.6819 41.4879Z" fill="#499D4A"/>
<path fill-rule="evenodd" clip-rule="evenodd" d="M10.2191 41.8864C10.2191 41.8864 0.33872 34.8296 0.925198 22.404C1.48205 9.97811 8.45998 3.87266 9.8085 2.76806C10.6882 1.78632 10.7176 1.41802 10.7763 0.436279C11.3918 1.81703 11.2747 21.0847 11.3625 23.355C11.6264 32.0991 10.8934 40.2298 10.2191 41.8864Z" fill="white"/>
<path fill-rule="evenodd" clip-rule="evenodd" d="M10.2191 41.8864C10.2191 41.8864 0.33872 34.8296 0.925198 22.404C1.48205 9.97811 8.45998 3.87266 9.8085 2.76806C10.6882 1.78632 10.7176 1.41802 10.7763 0.436279C11.3918 1.81703 11.2747 21.0847 11.3625 23.355C11.6264 32.0991 10.8934 40.2298 10.2191 41.8864Z" fill="#58AA50"/>
</svg>
