<svg width="106" height="71" viewBox="0 0 106 71" fill="none" xmlns="http://www.w3.org/2000/svg">
<path d="M52.4056 70.7191C52.0476 70.7191 51.7135 70.6159 51.4032 70.4352L48.2288 68.3965C47.7515 68.1126 47.9901 68.0093 48.1333 67.9577C48.7778 67.7255 48.8971 67.6738 49.5654 67.2609C49.637 67.2093 49.7325 67.2351 49.8041 67.2867L52.2386 68.861C52.334 68.9126 52.4534 68.9126 52.525 68.861L62.0481 62.8995C62.1436 62.8478 62.1913 62.7446 62.1913 62.6156V50.7183C62.1913 50.5893 62.1436 50.4861 62.0481 50.4344L52.525 44.4987C52.4295 44.4471 52.3102 44.4471 52.2386 44.4987L42.7154 50.4344C42.6199 50.4861 42.5722 50.6151 42.5722 50.7183V62.6156C42.5722 62.7188 42.6199 62.8478 42.7154 62.8995L45.317 64.5253C46.7251 65.2996 47.6082 64.3963 47.6082 63.493V51.7506C47.6082 51.5958 47.7276 51.4409 47.8947 51.4409H49.1119C49.2551 51.4409 49.3983 51.57 49.3983 51.7506V63.493C49.3983 65.5318 48.372 66.719 46.5819 66.719C46.033 66.719 45.6034 66.719 44.3861 66.0738L41.88 64.5253C41.2595 64.1382 40.8776 63.4156 40.8776 62.6414V50.7441C40.8776 49.9699 41.2595 49.2473 41.88 48.8602L51.4032 42.8987C51.9999 42.5374 52.8114 42.5374 53.4081 42.8987L62.9312 48.8602C63.5518 49.2473 63.9337 49.9699 63.9337 50.7441V62.6414C63.9337 63.4156 63.5518 64.1382 62.9312 64.5253L53.4081 70.4869C53.0978 70.6417 52.7398 70.7191 52.4056 70.7191ZM55.3413 62.5382C51.1645 62.5382 50.3053 60.4736 50.3053 58.7186C50.3053 58.5638 50.4246 58.409 50.5917 58.409H51.8328C51.976 58.409 52.0954 58.5122 52.0954 58.667C52.2863 60.0348 52.8352 60.7058 55.3652 60.7058C57.3701 60.7058 58.2293 60.2155 58.2293 59.0541C58.2293 58.3832 57.9906 57.8928 54.864 57.5573C52.2624 57.2734 50.6394 56.654 50.6394 54.4088C50.6394 52.3184 52.2624 51.0796 54.9833 51.0796C58.0384 51.0796 59.542 52.2152 59.733 54.6927C59.733 54.7701 59.7091 54.8475 59.6614 54.9249C59.6136 54.9766 59.542 55.0282 59.4704 55.0282H58.2293C58.11 55.0282 57.9906 54.9249 57.9668 54.7959C57.6804 53.3765 56.9405 52.912 54.9833 52.912C52.7875 52.912 52.525 53.7378 52.525 54.3572C52.525 55.1056 52.8352 55.3379 55.7948 55.7508C58.7305 56.1637 60.1149 56.7573 60.1149 58.9767C60.091 61.2478 58.3725 62.5382 55.3413 62.5382Z" fill="#539E43"/>
<path d="M22.8576 24.1884C22.8576 23.7239 22.6189 23.2851 22.237 23.0529L12.1172 16.7558C11.9501 16.6526 11.7592 16.601 11.5682 16.5752H11.4727C11.2818 16.5752 11.0909 16.6526 10.9238 16.7558L0.803937 23.0529C0.422056 23.2851 0.18338 23.7239 0.18338 24.1884L0.207248 41.1181C0.207248 41.3504 0.326586 41.5826 0.517526 41.6859C0.708467 41.8149 0.947142 41.8149 1.11422 41.6859L7.12884 37.9696C7.51072 37.7373 7.7494 37.2986 7.7494 36.8341V28.9112C7.7494 28.4466 7.98807 28.0079 8.36996 27.7756L10.9238 26.1756C11.1147 26.0465 11.3295 25.9949 11.5443 25.9949C11.7592 25.9949 11.974 26.0465 12.141 26.1756L14.6949 27.7756C15.0767 28.0079 15.3154 28.4466 15.3154 28.9112V36.8341C15.3154 37.2986 15.5541 37.7373 15.936 37.9696L21.9506 41.6859C22.1415 41.8149 22.3802 41.8149 22.5712 41.6859C22.7621 41.5826 22.8814 41.3504 22.8814 41.1181L22.8576 24.1884Z" fill="#333333"/>
<path d="M71.4997 0.884307C71.3088 0.781077 71.0701 0.781077 70.903 0.884307C70.7121 1.01334 70.5927 1.2198 70.5927 1.45207V18.2269C70.5927 18.3818 70.5211 18.5366 70.3779 18.6399C70.2347 18.7173 70.0915 18.7173 69.9483 18.6399L67.4183 17.0656C67.0365 16.8333 66.583 16.8333 66.2011 17.0656L56.0812 23.3884C55.6994 23.6207 55.4607 24.0594 55.4607 24.524V37.1438C55.4607 37.6083 55.6994 38.0471 56.0812 38.2793L66.2011 44.6022C66.583 44.8344 67.0365 44.8344 67.4183 44.6022L77.5382 38.2793C77.9201 38.0471 78.1587 37.6083 78.1587 37.1438V5.6845C78.1587 5.19416 77.9201 4.75543 77.5382 4.52316L71.4997 0.884307ZM70.5689 32.9888C70.5689 33.1178 70.5211 33.2211 70.4257 33.2727L66.9649 35.4405C66.8694 35.4921 66.75 35.4921 66.6546 35.4405L63.1938 33.2727C63.0983 33.2211 63.0506 33.092 63.0506 32.9888V28.6532C63.0506 28.5241 63.0983 28.4209 63.1938 28.3693L66.6546 26.2014C66.75 26.1498 66.8694 26.1498 66.9649 26.2014L70.4257 28.3693C70.5211 28.4209 70.5689 28.5499 70.5689 28.6532V32.9888Z" fill="#333333"/>
<path d="M105.177 28.5499C105.559 28.3177 105.774 27.879 105.774 27.4144V24.3433C105.774 23.8788 105.535 23.4401 105.177 23.2078L95.1286 16.9108C94.7467 16.6785 94.2932 16.6785 93.9113 16.9108L83.7915 23.2336C83.4096 23.4659 83.1709 23.9046 83.1709 24.3691V36.989C83.1709 37.4535 83.4096 37.8923 83.7915 38.1245L93.8397 44.3183C94.2216 44.5506 94.6751 44.5506 95.0331 44.3183L101.119 40.6537C101.31 40.5504 101.43 40.3182 101.43 40.0859C101.43 39.8536 101.31 39.6214 101.119 39.5181L90.9518 33.1953C90.7608 33.0663 90.6415 32.8598 90.6415 32.6275V28.679C90.6415 28.4467 90.7608 28.2144 90.9518 28.1112L94.1261 26.1498C94.3171 26.0208 94.5558 26.0208 94.7467 26.1498L97.9211 28.1112C98.112 28.2403 98.2314 28.4467 98.2314 28.679V31.7759C98.2314 32.0081 98.3507 32.2404 98.5416 32.3436C98.7326 32.4727 98.9713 32.4727 99.1622 32.3436L105.177 28.5499Z" fill="#333333"/>
<path d="M94.3648 27.9562C94.4364 27.9046 94.5319 27.9046 94.6035 27.9562L96.5368 29.1691C96.6084 29.2208 96.6561 29.2982 96.6561 29.4014V31.8273C96.6561 31.9305 96.6084 32.008 96.5368 32.0596L94.6035 33.2725C94.5319 33.3242 94.4364 33.3242 94.3648 33.2725L92.4315 32.0596C92.3599 32.008 92.3122 31.9305 92.3122 31.8273V29.4014C92.3122 29.2982 92.3599 29.2208 92.4315 29.1691L94.3648 27.9562Z" fill="#539E43"/>
<mask id="mask0" mask-type="alpha" maskUnits="userSpaceOnUse" x="27" y="16" width="24" height="29">
<path d="M39.7797 16.9623C39.3978 16.73 38.9443 16.73 38.5624 16.9623L28.5142 23.2335C28.1323 23.4658 27.9175 23.9045 27.9175 24.369V36.9373C27.9175 37.4018 28.1562 37.8405 28.5142 38.0728L38.5624 44.344C38.9443 44.5763 39.3978 44.5763 39.7797 44.344L49.8279 38.0728C50.2098 37.8405 50.4246 37.4018 50.4246 36.9373V24.369C50.4246 23.9045 50.1859 23.4658 49.8279 23.2335L39.7797 16.9623Z" fill="white"/>
</mask>
<g mask="url(#mask0)">
<path d="M39.7797 16.9623C39.3978 16.73 38.9443 16.73 38.5624 16.9623L28.5142 23.2335C28.1323 23.4658 27.9175 23.9045 27.9175 24.369V36.9373C27.9175 37.4018 28.1562 37.8405 28.5142 38.0728L38.5624 44.344C38.9443 44.5763 39.3978 44.5763 39.7797 44.344L49.8279 38.0728C50.2098 37.8405 50.4246 37.4018 50.4246 36.9373V24.369C50.4246 23.9045 50.1859 23.4658 49.8279 23.2335L39.7797 16.9623Z" fill="url(#paint0_linear)"/>
<path d="M49.8518 23.2328L39.7558 16.9616C39.6603 16.9099 39.541 16.8583 39.4455 16.8325L28.1323 37.7882C28.2278 37.9172 28.3471 38.0205 28.4664 38.0979L38.5624 44.3691C38.8488 44.5497 39.183 44.6014 39.4933 44.4981L50.1143 23.4908C50.0427 23.3876 49.9472 23.3102 49.8518 23.2328Z" fill="url(#paint1_linear)"/>
<path fill-rule="evenodd" clip-rule="evenodd" d="M49.8757 38.0728C50.1621 37.8921 50.3769 37.5824 50.4724 37.2469L39.3978 16.8074C39.1114 16.7558 38.8011 16.7816 38.5386 16.9623L28.5142 23.2077L39.3262 44.5246C39.4694 44.4988 39.6365 44.4472 39.7797 44.3698L49.8757 38.0728Z" fill="url(#paint2_linear)"/>
<path fill-rule="evenodd" clip-rule="evenodd" d="M49.8757 38.0726L39.8036 44.3438C39.6603 44.4212 39.5171 44.4728 39.3501 44.4986L39.541 44.8858L50.711 37.8919V37.7371L50.4246 37.2209C50.3769 37.5823 50.1621 37.8919 49.8757 38.0726Z" fill="url(#paint3_linear)"/>
<path fill-rule="evenodd" clip-rule="evenodd" d="M49.8757 38.0726L39.8036 44.3438C39.6603 44.4212 39.5171 44.4728 39.3501 44.4986L39.541 44.8858L50.711 37.8919V37.7371L50.4246 37.2209C50.3769 37.5823 50.1621 37.8919 49.8757 38.0726Z" fill="url(#paint4_linear)"/>
</g>
<defs>
<linearGradient id="paint0_linear" x1="43.2647" y1="21.6372" x2="30.9861" y2="39.4796" gradientUnits="userSpaceOnUse">
<stop stop-color="#41873F"/>
<stop offset="0.3288" stop-color="#418B3D"/>
<stop offset="0.6352" stop-color="#419637"/>
<stop offset="0.9319" stop-color="#3FA92D"/>
<stop offset="1" stop-color="#3FAE2A"/>
</linearGradient>
<linearGradient id="paint1_linear" x1="37.6454" y1="32.1243" x2="66.1694" y2="17.7922" gradientUnits="userSpaceOnUse">
<stop offset="0.1376" stop-color="#41873F"/>
<stop offset="0.4032" stop-color="#54A044"/>
<stop offset="0.7136" stop-color="#66B848"/>
<stop offset="0.9081" stop-color="#6CC04A"/>
</linearGradient>
<linearGradient id="paint2_linear" x1="27.5505" y1="30.6535" x2="50.8016" y2="30.6535" gradientUnits="userSpaceOnUse">
<stop offset="0.0919165" stop-color="#6CC04A"/>
<stop offset="0.2864" stop-color="#66B848"/>
<stop offset="0.5968" stop-color="#54A044"/>
<stop offset="0.8624" stop-color="#41873F"/>
</linearGradient>
<linearGradient id="paint3_linear" x1="27.5505" y1="41.0745" x2="50.8016" y2="41.0745" gradientUnits="userSpaceOnUse">
<stop offset="0.0919165" stop-color="#6CC04A"/>
<stop offset="0.2864" stop-color="#66B848"/>
<stop offset="0.5968" stop-color="#54A044"/>
<stop offset="0.8624" stop-color="#41873F"/>
</linearGradient>
<linearGradient id="paint4_linear" x1="54.189" y1="21.0429" x2="47.3429" y2="54.2199" gradientUnits="userSpaceOnUse">
<stop stop-color="#41873F"/>
<stop offset="0.3288" stop-color="#418B3D"/>
<stop offset="0.6352" stop-color="#419637"/>
<stop offset="0.9319" stop-color="#3FA92D"/>
<stop offset="1" stop-color="#3FAE2A"/>
</linearGradient>
</defs>
</svg>
